PathFileType	4	(X/Y/Z)	/Users/itak/Documents/Research/Walk-IL/dataset/trc/00363_00011.trc
DataRate	CameraRate	NumFrames	NumMarkers	Units	OrigDataRate	OrigDataStartFrame	OrigNumFrames
100.000000	100.000000	4	56	mm	100.000000	312	416
Frame#	Time	RPSI			LPSI			L3			STRN			T10			C7			CLAV			RBAK			LBAK			LSHO			LUPA			LAEL			LAOL			LWPS			LFRA			LHPS			LHTS			RSHO			RUPA			RAEL			RAOL			RWPS			RFRA			RIFD			RHTS			RHPS			RBHD			LFHD			RFHD			LBHD			LHIP			RHIP			RASI			LASI			LKNE			LTHI			LANK			LTIP			LTOE			LMT1			LMT5			LHEE			RKNE			RTIP			RTOE			RMT1			RMT5			RHEE			LWTS			LIFD			RWTS			RTHI			RANK			*53			*54			*55			
		X1	Y1	Z1	X2	Y2	Z2	X3	Y3	Z3	X4	Y4	Z4	X5	Y5	Z5	X6	Y6	Z6	X7	Y7	Z7	X8	Y8	Z8	X9	Y9	Z9	X10	Y10	Z10	X11	Y11	Z11	X12	Y12	Z12	X13	Y13	Z13	X14	Y14	Z14	X15	Y15	Z15	X16	Y16	Z16	X17	Y17	Z17	X18	Y18	Z18	X19	Y19	Z19	X20	Y20	Z20	X21	Y21	Z21	X22	Y22	Z22	X23	Y23	Z23	X24	Y24	Z24	X25	Y25	Z25	X26	Y26	Z26	X27	Y27	Z27	X28	Y28	Z28	X29	Y29	Z29	X30	Y30	Z30	X31	Y31	Z31	X32	Y32	Z32	X33	Y33	Z33	X34	Y34	Z34	X35	Y35	Z35	X36	Y36	Z36	X37	Y37	Z37	X38	Y38	Z38	X39	Y39	Z39	X40	Y40	Z40	X41	Y41	Z41	X42	Y42	Z42	X43	Y43	Z43	X44	Y44	Z44	X45	Y45	Z45	X46	Y46	Z46	X47	Y47	Z47	X48	Y48	Z48	X49	Y49	Z49	X50	Y50	Z50	X51	Y51	Z51	X52	Y52	Z52	X53	Y53	Z53	X54	Y54	Z54	X55	Y55	Z55	X56	Y56	Z56	

313	3.12	600.4286499023438	968.7346801757812	-289.1519470214844	474.51318359375	971.4955444335938	-258.8838195800781	544.0341796875	1028.972045898438	-274.5396728515625	480.0379943847656	1226.308715820312	-489.8187866210938	541.4024658203125	1148.4140625	-261.5246887207031	510.82275390625	1397.39306640625	-286.5233459472656	482.483642578125	1350.281494140625	-442.0587768554688	592.1306762695312	1258.361328125	-264.954833984375	417.080322265625	1357.413452148438	-254.9048461914062	342.73388671875	1377.27880859375	-322.4307556152344	284.2795104980469	1262.251220703125	-277.923095703125	257.3067321777344	1062.149047851562	-261.4011840820312	334.9586486816406	1047.569091796875	-231.5615234375	203.7831726074219	809.47802734375	-268.1826782226562	236.5747375488281	958.94677734375	-256.3366088867188	204.1052856445312	741.0516357421875	-257.1343994140625	207.5557403564453	733.7748413085938	-320.5192260742188	656.125	1397.057250976562	-376.7050170898438	723.093994140625	1338.306762695312	-384.8765258789062	807.7435302734375	1089.532592773438	-447.1185302734375	730.5244140625	1059.721069335938	-403.8525085449219	834.3892822265625	900.660400390625	-612.8788452148438	823.7435302734375	1034.966430664062	-492.5977783203125	791.7409057617188	794.922119140625	-742.1111450195312	792.1873779296875	863.6639404296875	-715.8173828125	835.9384765625	838.2467651367188	-668.2486572265625	575.4374389648438	1594.515502929688	-315.2273254394531	423.6768493652344	1641.665893554688	-450.1887817382812	524.9573974609375	1646.556518554688	-460.9714660644531	438.0078125	1576.556762695312	-275.9569702148438	350.6917114257812	924.1095581054688	-324.5617980957031	688.0859375	915.7615966796875	-391.677490234375	625.38818359375	949.6361694335938	-485.4285888671875	387.2806091308594	954.6705322265625	-452.7727661132812	313.0429992675781	484.2523193359375	-477.393310546875	314.6587524414062	616.202392578125	-446.7064819335938	363.8108825683594	125.4496078491211	-226.3885803222656	325.781005859375	293.9726257324219	-349.4053039550781	362.8286743164062	58.40633392333984	-426.7592163085938	421.2561340332031	59.51423645019531	-370.1801452636719	317.296875	82.72066497802734	-332.8235168457031	437.9261169433594	131.08935546875	-213.1804504394531	639.880859375	457.3642272949219	-471.9739685058594	625.5404052734375	339.0798034667969	-486.0523681640625	543.757568359375	36.86694717407227	-613.2586669921875	506.5091857910156	36.98611450195312	-554.8374633789062	620.6652221679688	28.18642234802246	-521.3790893554688	563.8165893554688	47.02671432495117	-370.6677551269531	233.1103363037109	808.1954345703125	-330.8292236328125	218.1970520019531	648.6504516601562	-308.5386657714844	770.4434204101562	933.0267944335938	-640.5628662109375	665.5112915039062	717.9166259765625	-484.4520263671875	610.5225219726562	41.59636688232422	-421.5187683105469	nan	nan	nan	nan	nan	nan	nan	nan	nan	
314	3.13	600.5794067382812	969.1320190429688	-293.0748596191406	474.5768127441406	971.919677734375	-263.3690795898438	544.4061279296875	1029.266479492188	-278.4789428710938	480.93017578125	1226.676147460938	-493.9381713867188	541.9469604492188	1148.603881835938	-265.6087341308594	511.517333984375	1397.550048828125	-290.4391174316406	483.3707580566406	1350.634033203125	-446.0763854980469	592.75830078125	1258.555053710938	-268.7926635742188	417.799072265625	1357.677978515625	-258.9982604980469	343.5366821289062	1377.684692382812	-326.535400390625	285.0639038085938	1262.936279296875	-281.4933166503906	258.635986328125	1062.918090820312	-263.6359558105469	336.3614501953125	1048.487670898438	-234.3290710449219	205.0676879882812	810.1576538085938	-269.3372802734375	237.9270172119141	959.6984252929688	-258.0322265625	205.5283050537109	741.7030029296875	-258.4330749511719	208.2469482421875	734.5794677734375	-321.9005737304688	657.0064697265625	1397.259887695312	-380.4209289550781	723.8923950195312	1338.402587890625	-388.5570373535156	808.6209716796875	1089.840087890625	-452.0950622558594	731.6469116210938	1059.985961914062	-408.5444030761719	833.0672607421875	903.8696899414062	-621.3003540039062	824.154296875	1035.714599609375	-498.2582092285156	788.3380126953125	800.9246215820312	-752.3587646484375	789.860107421875	869.3069458007812	-724.727294921875	833.5350952148438	842.45654296875	-677.9188842773438	576.4354858398438	1594.879028320312	-319.4124145507812	424.4383544921875	1641.940795898438	-454.1620788574219	525.7654418945312	1646.791137695312	-465.1181640625	439.0247802734375	1576.948120117188	-279.9815979003906	350.9359741210938	924.5219116210938	-329.4666137695312	688.263916015625	915.7566528320312	-395.8289184570312	626.23291015625	949.7329711914062	-489.1216125488281	388.0477294921875	955.06201171875	-457.5343017578125	313.4434814453125	484.3845520019531	-481.6997375488281	314.992431640625	616.6402587890625	-451.0920715332031	357.9673767089844	118.1050033569336	-240.6352081298828	323.0254211425781	290.9723205566406	-358.4815063476562	356.9775085449219	60.68092346191406	-443.9715270996094	415.0027770996094	57.8562126159668	-386.8599548339844	311.3408813476562	81.58440399169922	-349.2427978515625	432.0263671875	121.806282043457	-226.5918731689453	640.5678100585938	457.1194152832031	-473.1425170898438	625.9769287109375	338.825439453125	-486.7144165039062	543.7802124023438	36.8046760559082	-613.3123779296875	506.5263671875	36.98472213745117	-554.8551635742188	620.665771484375	28.18095970153809	-521.3760986328125	563.8082275390625	47.12007904052734	-370.7118530273438	233.8691558837891	808.9415893554688	-332.2869873046875	218.8724060058594	649.4487915039062	-310.24658203125	769.2393188476562	937.31640625	-647.9491577148438	666.1474609375	717.768310546875	-487.0769653320312	610.4798583984375	41.62723922729492	-421.5149841308594	nan	nan	nan	nan	nan	nan	nan	nan	nan	
315	3.14	600.6604614257812	969.5643310546875	-296.9276123046875	474.5874633789062	972.3681640625	-267.7858276367188	544.6690063476562	1029.519287109375	-282.3959045410156	481.7867736816406	1227.021362304688	-497.9563293457031	542.3463134765625	1148.759765625	-269.5959777832031	512.0770263671875	1397.663330078125	-294.2402954101562	484.2189331054688	1350.977172851562	-449.998291015625	593.2401733398438	1258.716552734375	-272.4605102539062	418.3642272949219	1357.913330078125	-263.0304870605469	344.2242736816406	1378.063842773438	-330.6323547363281	285.7135009765625	1263.534545898438	-285.2242126464844	259.8540344238281	1063.58154296875	-266.3067321777344	337.6688232421875	1049.323120117188	-237.4186706542969	206.3788146972656	810.722412109375	-270.8692932128906	239.2442779541016	960.3569946289062	-260.19287109375	207.0181732177734	742.2642211914062	-259.9524841308594	209.1440582275391	735.1393432617188	-323.47265625	657.8033447265625	1397.429809570312	-383.9423522949219	724.6240234375	1338.474609375	-392.0019836425781	809.311767578125	1090.016357421875	-456.5558776855469	732.4631958007812	1060.124389648438	-412.8995361328125	831.4555053710938	906.8141479492188	-628.9717407226562	824.3455200195312	1036.325073242188	-503.3695373535156	784.5933227539062	806.54736328125	-761.6095581054688	787.1956176757812	874.565185546875	-732.7625122070312	830.83935546875	846.3829345703125	-686.753662109375	577.3837280273438	1595.2060546875	-323.44677734375	425.2314453125	1642.2099609375	-458.0531921386719	526.5848388671875	1646.996337890625	-469.1241455078125	439.9582214355469	1577.325073242188	-283.8996276855469	351.126953125	924.88818359375	-334.2842712402344	688.4764404296875	915.8532104492188	-399.6653747558594	627.0015258789062	949.823486328125	-492.7362670898438	388.7408447265625	955.4166259765625	-462.2063598632812	313.8844299316406	484.3777465820312	-485.5708312988281	315.4093322753906	616.930419921875	-455.0836181640625	351.8395690917969	111.0460052490234	-254.8117523193359	320.1767883300781	288.0812072753906	-367.2792358398438	351.2599792480469	63.19070434570312	-460.6148681640625	408.70263671875	56.5082893371582	-403.0763854980469	305.3334350585938	80.75077056884766	-365.3041076660156	425.8038635253906	112.732421875	-239.9670257568359	641.0946044921875	456.9091796875	-474.3186950683594	626.3360595703125	338.5808715820312	-487.3817138671875	543.8036499023438	36.75043487548828	-613.3650512695312	506.5319213867188	36.9782829284668	-554.872314453125	620.6636352539062	28.18067169189453	-521.3745727539062	563.7899169921875	47.21957778930664	-370.7577819824219	234.7664794921875	809.4699096679688	-334.0516662597656	219.8800201416016	650.053466796875	-311.892333984375	767.7290649414062	941.2769775390625	-654.5548706054688	666.6892700195312	717.5904541015625	-489.6819152832031	610.42041015625	41.65253829956055	-421.5025024414062	nan	nan	nan	nan	nan	nan	nan	nan	nan	
316	3.15	600.67236328125	970.0174560546875	-300.7048645019531	474.5470581054688	972.8441772460938	-272.1058654785156	544.8215942382812	1029.734497070312	-286.2965087890625	482.6142883300781	1227.34619140625	-501.8828125	542.6116943359375	1148.89013671875	-273.4715576171875	512.5077514648438	1397.746948242188	-297.9386901855469	485.0288391113281	1351.306030273438	-453.8310546875	593.5814208984375	1258.849853515625	-275.97021484375	418.77880859375	1358.119750976562	-267.0110473632812	344.7957458496094	1378.407836914062	-334.7315673828125	286.2406616210938	1264.032592773438	-289.1235656738281	260.9472351074219	1064.128173828125	-269.4061889648438	338.868408203125	1050.070434570312	-240.8070831298828	207.7027740478516	811.1595458984375	-272.7886962890625	240.5026550292969	960.90625	-262.8167419433594	208.5607452392578	742.71923828125	-261.700927734375	210.2565765380859	735.4410400390625	-325.2438354492188	658.5115356445312	1397.56201171875	-387.2745666503906	725.290283203125	1338.523193359375	-395.2221069335938	809.8163452148438	1090.057373046875	-460.520263671875	732.9735717773438	1060.134521484375	-416.921142578125	829.5670776367188	909.4461059570312	-635.89208984375	824.3268432617188	1036.785278320312	-507.9432067871094	780.5570678710938	811.7797241210938	-769.8939208984375	784.2274780273438	879.396728515625	-739.9364624023438	827.8754272460938	849.9735107421875	-694.7459716796875	578.2783813476562	1595.4931640625	-327.3289794921875	426.0533447265625	1642.47119140625	-461.8655395507812	527.4100341796875	1647.174682617188	-472.9894104003906	440.8099670410156	1577.684814453125	-287.7096557617188	351.2648010253906	925.2162475585938	-339.0109252929688	688.7269287109375	916.000244140625	-403.2137451171875	627.7024536132812	949.901611328125	-496.2704467773438	389.3619384765625	955.7432861328125	-466.7864990234375	314.3623352050781	484.257080078125	-489.0430603027344	315.9005432128906	617.0823974609375	-458.6963195800781	345.5297546386719	104.343879699707	-268.8623962402344	317.2897644042969	285.3173522949219	-375.8066711425781	345.697021484375	65.91782379150391	-476.66796875	402.4073791503906	55.46316909790039	-418.8322448730469	299.3431701660156	80.22705078125	-380.9573669433594	419.3665161132812	103.9411544799805	-253.3068542480469	641.4573974609375	456.7309265136719	-475.4961547851562	626.6158447265625	338.3493347167969	-488.0573425292969	543.828369140625	36.70273590087891	-613.41845703125	506.5181579589844	36.95957946777344	-554.8902587890625	620.6582641601562	28.18717575073242	-521.3746337890625	563.7512817382812	47.32301330566406	-370.8038940429688	235.7900238037109	809.7700805664062	-336.13037109375	221.2304382324219	650.4393920898438	-313.4922180175781	765.9434204101562	944.8777465820312	-660.3988037109375	667.1431884765625	717.3887329101562	-492.2478637695312	610.3390502929688	41.68139266967773	-421.4843139648438	nan	nan	nan	nan	nan	nan	nan	nan	nan	
